<svg width="311" height="128" viewBox="0 0 311 128" fill="none" xmlns="http://www.w3.org/2000/svg">
<rect width="311" height="128" fill="#3B3940"/>
<g clip-path="url(#clip0_174_73)">
<path fill-rule="evenodd" clip-rule="evenodd" d="M142.846 51.574H147.5L155.72 72.331H150.926L149.339 68.068H140.753L139.194 72.331H134.431L142.846 51.574ZM160.934 51.574H156.935V55.161H160.935L160.934 51.574ZM160.934 57.247H156.935V72.331H160.935L160.934 57.247ZM167.021 59.658H167.109C168.021 57.953 169.049 57.071 170.814 57.071C171.254 57.071 171.52 57.101 171.754 57.188V60.688H171.666C169.05 60.423 167.168 61.805 167.168 64.98V72.331H163.169V57.247H167.021V59.658ZM183.545 51.574H179.546V55.161H183.545V51.574ZM179.546 57.247H183.545V72.331H179.546V57.247ZM189.778 59.305H189.69V57.247H185.78V72.331H189.778V63.775C189.778 61.716 191.072 60.305 192.836 60.305C194.512 60.305 195.453 61.452 195.453 63.069V72.331H199.452V62.481C199.452 59.188 197.364 56.835 194.247 56.835C192.189 56.835 190.807 57.688 189.778 59.305ZM201.098 64.775C201.098 60.305 204.126 56.835 208.536 56.835C213.388 56.835 215.975 60.541 215.975 65.921H205.038C205.332 68.244 206.625 69.685 208.889 69.685C210.448 69.685 211.359 68.979 211.8 67.832H215.74C215.182 70.508 212.8 72.772 208.919 72.772C203.92 72.772 201.098 69.272 201.098 64.775ZM211.8 63.157H205.096C205.449 61.187 206.478 59.923 208.595 59.923C210.418 59.923 211.683 61.246 211.8 63.157ZM216.896 67.45H220.601C220.866 69.185 222.101 69.95 223.895 69.95C225.659 69.95 226.659 69.273 226.659 68.215C226.659 66.955 225.198 66.685 223.455 66.361C223.199 66.3141 222.944 66.2655 222.689 66.215C219.984 65.686 217.338 64.951 217.338 61.658C217.338 58.394 220.043 56.836 223.483 56.836C227.452 56.836 229.658 58.806 229.952 61.834H226.335C226.159 60.217 225.129 59.629 223.424 59.629C221.866 59.629 220.837 60.217 220.837 61.305C220.837 62.39 222.243 62.648 223.963 62.963C224.294 63.023 224.637 63.086 224.983 63.158C227.511 63.687 230.305 64.392 230.305 67.921C230.305 70.949 227.717 72.773 223.954 72.773C219.572 72.773 217.132 70.655 216.896 67.45ZM141.899 64.569H148.162L144.987 55.747L141.9 64.568L141.899 64.569ZM177.312 51.574H173.312V72.33H177.312V51.574Z" fill="white"/>
<path fill-rule="evenodd" clip-rule="evenodd" d="M129.5 64.005C129.5 77.265 118.762 88 105.507 88C92.25 88 81.5 77.264 81.5 64.005C81.5 50.746 92.25 40 105.507 40C118.763 40 129.5 50.746 129.5 64.005ZM103.638 51.573C99.878 51.573 97.439 51.78 95.673 52.436C92.706 53.592 90.657 56.015 90.657 59.198C90.657 61.85 91.892 63.77 95.465 65.978C99.278 68.29 100.038 69.054 100.038 70.446C100.038 71.971 98.545 73.706 94.702 73.706C93.362 73.706 91.341 73.52 90.05 73.204L89.434 73.049C89.091 73.97 88.311 76.149 88.073 76.939L88.683 77.119C89.843 77.489 92.6 77.779 94.573 77.779C101.141 77.779 105.06 73.81 105.06 69.656C105.06 67.103 103.9 65.162 99.983 62.718C98.018 61.508 97.017 60.725 96.408 60.118C95.916 59.485 95.861 59.013 95.861 58.515C95.861 58.04 95.967 57.492 96.281 57.091C96.619 56.594 97.241 56.278 98.083 56.017C98.948 55.73 100.55 55.723 103.046 55.723H105.371L107.031 51.573H103.638ZM109.524 51.573H121.204C121.752 51.573 121.857 51.961 121.646 52.383C120.882 54.276 113.676 72.33 113.676 72.33H108.86C108.86 72.33 114.551 57.827 115.496 55.667C115.277 55.667 115.076 55.673 114.807 55.681C114.272 55.698 113.471 55.723 111.735 55.723H107.864L109.524 51.573Z" fill="white"/>
</g>
<defs>
<clipPath id="clip0_174_73">
<rect width="150" height="48" fill="white" transform="translate(80.5 40)"/>
</clipPath>
</defs>
</svg>
