<svg width="48" height="48" viewBox="0 0 48 48" fill="none" xmlns="http://www.w3.org/2000/svg">
<g clip-path="url(#clip0_151_41)">
<path d="M39 42.54C36.4035 42.54 34.2585 40.566 33.9885 38.04H15.5115C15.2415 40.566 13.0965 42.54 10.5 42.54C7.90346 42.54 5.75846 40.566 5.48846 38.04H4.49996C2.54846 38.04 0.959961 36.4515 0.959961 34.5V24C0.959961 23.898 0.988461 23.8035 1.03646 23.7225L7.09496 13.23C7.19096 13.0635 7.36946 12.96 7.56296 12.96H18.9615V6C18.9615 5.7015 19.203 5.46 19.5015 5.46H46.5015C46.8 5.46 47.0415 5.7015 47.0415 6V37.5C47.0415 37.7985 46.8 38.04 46.5015 38.04H44.013C43.7415 40.566 41.5965 42.54 39 42.54ZM39 33.54C36.816 33.54 35.04 35.316 35.04 37.5C35.04 39.684 36.816 41.46 39 41.46C41.184 41.46 42.96 39.684 42.96 37.5C42.96 35.316 41.184 33.54 39 33.54ZM10.5 33.54C8.31596 33.54 6.53996 35.316 6.53996 37.5C6.53996 39.684 8.31596 41.46 10.5 41.46C12.684 41.46 14.46 39.684 14.46 37.5C14.46 35.316 12.684 33.54 10.5 33.54ZM44.0115 36.96H45.96V6.54H20.04V36.96H33.9885C34.2585 34.434 36.402 32.46 39 32.46C41.598 32.46 43.7415 34.434 44.0115 36.96ZM15.5115 36.96H18.96V24.54H2.03996V34.5C2.03996 35.856 3.14396 36.96 4.49996 36.96H5.48846C5.75846 34.434 7.90346 32.46 10.5 32.46C13.0965 32.46 15.2415 34.434 15.5115 36.96ZM15.54 23.46H18.96V14.04H15.54V23.46ZM2.43596 23.46H14.46V14.04H7.87496L2.43596 23.46ZM16.5 27.54H13.5V26.46H16.5V27.54ZM43.5 24.54H31.5V23.46H43.5V24.54ZM43.5 20.04H28.5V18.96H43.5V20.04ZM43.5 15.54H25.5V14.46H43.5V15.54ZM43.5 11.04H22.5V9.96H43.5V11.04Z" fill="white"/>
</g>
<defs>
<clipPath id="clip0_151_41">
<rect width="48" height="48" fill="white"/>
</clipPath>
</defs>
</svg>
