<svg width="32" height="32" viewBox="0 0 32 32" fill="none" xmlns="http://www.w3.org/2000/svg">
<path d="M27.6018 7.664C27.4168 7.43519 27.0808 7.40056 26.852 7.58612C26.6231 7.77119 26.5885 8.10719 26.7741 8.336C28.7682 10.7941 29.8669 13.8949 29.8669 17.0667C29.8669 24.7126 23.6461 30.9334 16.0002 30.9334C8.35433 30.9334 2.13352 24.7126 2.13352 17.0667C2.13352 9.5995 8.06739 3.49494 15.4668 3.21338V5.34669C9.24389 5.62669 4.26683 10.776 4.26683 17.0667C4.26689 23.5366 9.53033 28.8 16.0002 28.8C22.4701 28.8 27.7335 23.5365 27.7335 17.0667C27.7335 13.888 26.4834 10.9115 24.213 8.68644C24.0023 8.48056 23.6647 8.48375 23.4583 8.69388C23.2524 8.904 23.2556 9.24212 23.4663 9.448C25.5303 11.4709 26.6668 14.1771 26.6668 17.0667C26.6668 22.9483 21.8818 27.7334 16.0001 27.7334C10.1185 27.7334 5.33352 22.9482 5.33352 17.0667C5.33352 11.3654 9.83377 6.70775 15.4668 6.42725V8.56056C11.0103 8.83787 7.46683 12.5414 7.46683 17.0667C7.46683 21.7717 11.2951 25.6 16.0001 25.6C20.7052 25.6 24.5335 21.7717 24.5335 17.0667C24.5335 13.4544 22.246 10.2203 18.8423 9.01819C18.5633 8.92006 18.2599 9.06563 18.1618 9.3435C18.0636 9.62138 18.2092 9.92587 18.4871 10.0241C21.4658 11.0758 23.4668 13.9057 23.4668 17.0667C23.4668 21.1841 20.1175 24.5334 16.0001 24.5334C11.8828 24.5334 8.53346 21.1841 8.53346 17.0667C8.53346 13.1297 11.5985 9.9025 15.4668 9.62731V11.7606C12.7756 12.0289 10.6668 14.3057 10.6668 17.0667C10.6668 20.0076 13.0593 22.4001 16.0001 22.4001C18.9408 22.4001 21.3334 20.0075 21.3334 17.0667C21.3334 15.0273 20.1985 13.1964 18.3707 12.2881C18.1067 12.1558 17.7867 12.2646 17.6555 12.5286C17.5248 12.7921 17.6326 13.1121 17.8961 13.2433C19.3585 13.9697 20.2668 15.4347 20.2668 17.0667C20.2668 19.4193 18.3526 21.3334 16.0001 21.3334C13.6475 21.3334 11.7334 19.4193 11.7334 17.0667C11.7334 14.895 13.3654 13.1009 15.4667 12.8369V15.0091C14.5494 15.2475 13.8667 16.0758 13.8667 17.0667C13.8667 18.2433 14.8235 19.2001 16 19.2001C17.1765 19.2001 18.1333 18.2432 18.1333 17.0667C18.1333 16.7724 17.8944 16.5334 17.6 16.5334C17.3056 16.5334 17.0667 16.7724 17.0667 17.0667C17.0667 17.655 16.5883 18.1334 16 18.1334C15.4118 18.1334 14.9333 17.6551 14.9333 17.0667C14.9333 16.6737 15.1493 16.3334 15.4666 16.1484V17.0667C15.4666 17.3611 15.7056 17.6001 16 17.6001C16.2943 17.6001 16.5333 17.3611 16.5333 17.0667V1.06675H20.2666V5.33344H18.1333C17.8389 5.33344 17.6 5.57237 17.6 5.86675C17.6 6.16112 17.8389 6.40006 18.1333 6.40006H20.2666V6.93337C20.2666 7.22775 20.5055 7.46669 20.7999 7.46669H25.0666C25.361 7.46669 25.5999 7.22775 25.5999 6.93337V1.6C25.5999 1.30562 25.361 1.06669 25.0666 1.06669H22.9333C22.6389 1.06669 22.4 1.30562 22.4 1.6C22.4 1.89438 22.6389 2.13331 22.9333 2.13331H24.5333V6.4H21.3333V0.533312C21.3333 0.238937 21.0943 0 20.8 0H16.0002C15.7058 0 15.4669 0.238937 15.4669 0.533312V2.14663C7.47864 2.42931 1.06689 9.01119 1.06689 17.0666C1.06689 25.3008 7.76608 32 16.0002 32C24.2343 32 30.9335 25.3008 30.9335 17.0667C30.9335 13.6512 29.7506 10.3114 27.6018 7.664Z" fill="#BDBDBD"/>
</svg>
