<svg width="311" height="128" viewBox="0 0 311 128" fill="none" xmlns="http://www.w3.org/2000/svg">
<rect width="311" height="128" fill="#3B3940"/>
<g clip-path="url(#clip0_174_78)">
<path d="M127.775 97.5L126.625 103.926H127.575L127.831 102.385H129.081L129.35 103.926H130.306L129.156 97.5H127.775ZM127.931 101.536L128.431 98.5456H128.487L128.975 101.536H127.931ZM132.719 103.926H133.669V98.4069H134.938V103.926H135.881V97.5H132.719V103.925V103.926ZM139.45 97.5L138.294 103.926H139.244L139.506 102.385H140.75L141.019 103.926H141.981L140.825 97.5H139.45ZM139.606 101.536L140.1 98.5456H140.156L140.65 101.536H139.606ZM146.962 97.7463C146.69 97.5629 146.365 97.4761 146.037 97.5H144.394V103.925H145.337V101.721H146.037C146.367 101.745 146.695 101.652 146.962 101.458C147.176 101.28 147.32 101.032 147.369 100.757C147.439 100.379 147.47 99.9934 147.463 99.6081C147.472 99.214 147.439 98.8199 147.363 98.4331C147.312 98.1646 147.171 97.9215 146.962 97.745V97.7463ZM146.469 100.394C146.458 100.529 146.401 100.657 146.306 100.755C146.183 100.837 146.035 100.874 145.888 100.861H145.337V98.3688H145.888C146.035 98.3568 146.182 98.3939 146.306 98.4744C146.4 98.5706 146.458 98.6966 146.469 98.8306C146.505 99.0885 146.519 99.349 146.513 99.6094C146.519 99.8712 146.505 100.133 146.469 100.393V100.394ZM149.575 98.3763H150.625V103.926H151.575V98.375H152.625V97.5H149.575V98.375V98.3763ZM155.05 101.675H156.65V100.843H155.05V101.675ZM162.081 97.6956C161.743 97.4857 161.347 97.3904 160.95 97.4238C160.555 97.3902 160.161 97.4856 159.825 97.6956C159.571 97.9316 159.419 98.2566 159.4 98.6025C159.283 100.007 159.283 101.42 159.4 102.824C159.419 103.17 159.571 103.494 159.825 103.729C160.16 103.94 160.555 104.036 160.95 104.001C161.347 104.036 161.744 103.94 162.081 103.729C162.335 103.494 162.488 103.17 162.506 102.824C162.623 101.42 162.623 100.007 162.506 98.6025C162.488 98.2562 162.335 97.9306 162.081 97.6944V97.6956ZM161.6 102.412C161.602 102.624 161.541 102.833 161.425 103.011C161.286 103.107 161.118 103.151 160.95 103.136C160.784 103.153 160.617 103.109 160.481 103.011C160.363 102.834 160.301 102.625 160.306 102.412C160.275 102.094 160.256 101.529 160.256 100.711C160.256 99.8938 160.275 99.33 160.306 99.0131C160.302 98.8003 160.363 98.5912 160.481 98.4144C160.617 98.3159 160.784 98.2713 160.95 98.2894C161.118 98.2736 161.286 98.3179 161.425 98.4144C161.541 98.5926 161.601 98.8007 161.6 99.0131C161.631 99.33 161.644 99.8975 161.644 100.711C161.644 101.525 161.631 102.093 161.6 102.411V102.412ZM164.787 98.3763H165.844V103.926H166.794V98.375H167.844V97.5H164.787V98.375V98.3763ZM170.238 103.926H172.756V103.058H171.194V101.115H172.562V100.244H171.194V98.3694H172.756V97.5H170.238V103.925V103.926ZM184.281 100.667C184.23 100.394 184.086 100.147 183.875 99.9669C183.607 99.7726 183.28 99.6796 182.95 99.7044H182.25V97.5H181.3V103.925H182.95C183.275 103.95 183.6 103.863 183.869 103.679C184.081 103.505 184.225 103.261 184.275 102.991C184.351 102.604 184.385 102.21 184.375 101.816C184.383 101.431 184.351 101.045 184.281 100.666V100.667ZM183.381 102.596C183.371 102.732 183.311 102.858 183.212 102.952C183.091 103.034 182.946 103.071 182.8 103.058H182.25V100.562H182.8C182.946 100.548 183.092 100.586 183.212 100.668C183.312 100.764 183.372 100.892 183.381 101.029C183.417 101.289 183.432 101.552 183.425 101.814C183.432 102.075 183.417 102.336 183.381 102.595V102.596ZM177.569 97.5H175.675V101.741C175.684 102.06 175.669 102.38 175.631 102.697C175.632 102.762 175.616 102.826 175.586 102.883C175.555 102.941 175.511 102.989 175.456 103.025C175.292 103.085 175.118 103.112 174.944 103.106V103.926C175.341 103.946 175.739 103.894 176.119 103.773C176.235 103.709 176.333 103.617 176.405 103.505C176.477 103.393 176.521 103.266 176.531 103.133C176.604 102.522 176.633 101.907 176.619 101.292V98.3675H177.569V103.926H178.519V97.5H177.569ZM159.738 49.8219H151.263V44.3531H147.931V58.0231H151.263V52.555H159.738V58.0231H163.062V44.3531H159.738V49.8219ZM147.931 41.3125H163.062V40.7075H147.931V41.3125ZM155.5 29.9212L147.931 24V37.67H151.263V30.7075L155.5 34.025L159.738 30.7081V37.6706H163.062V24L155.5 29.9212ZM96.5062 83.5713H96.35L94.3188 71.6894H90.8125V87.115H92.975V74.8975H93.1125L95.2125 87.1175H97.5375L99.6312 74.8975H99.7688V87.1175H101.981V71.6919H98.5375L96.5062 83.5713ZM104.125 87.115H110.175V85.0294H106.425V80.3675H109.706V78.28H106.425V73.7756H110.175V71.6919H104.125V87.1175V87.115ZM124.856 71.6894H122.531L120.388 78.2144H119.362V71.6919H117.081V78.2169H116.056L113.912 71.6919H111.588L114.269 79.18L111.569 87.1175H113.956L116.056 80.3919H117.081V87.1175H119.362V80.3919H120.388L122.487 87.1175H124.881L122.175 79.18L124.856 71.6894ZM150.869 78.2363H147.831V71.6919H145.55V87.1175H147.831V80.4137H150.869V87.1175H153.144V71.6919H150.869V78.2387V78.2363ZM157.231 71.6894L154.462 87.115H156.744L157.369 83.4144H160.363L161.012 87.115H163.306L160.544 71.6894H157.231ZM157.612 81.3769L158.8 74.2025H158.931L160.112 81.3769H157.612ZM170.794 72.2869C170.145 71.8441 169.365 71.6343 168.581 71.6919H164.625V87.1175H166.906V81.8256H168.581C169.373 81.884 170.161 81.6628 170.806 81.2006C171.311 80.7658 171.652 80.1725 171.775 79.5181C172.079 77.6692 172.075 75.7826 171.763 73.935C171.64 73.2901 171.298 72.7076 170.794 72.2869ZM169.619 78.6419C169.592 78.9678 169.45 79.2737 169.219 79.505C168.927 79.7035 168.576 79.7949 168.225 79.7637H166.906V73.7756H168.225C168.576 73.7445 168.927 73.8361 169.219 74.035C169.449 74.2629 169.59 74.565 169.619 74.8875C169.7 75.509 169.734 76.1359 169.719 76.7625C169.733 77.3906 169.7 78.0188 169.619 78.6419ZM179.85 72.1625C179.013 71.7355 178.087 71.513 177.147 71.513C176.207 71.513 175.281 71.7355 174.444 72.1625C173.833 72.7273 173.466 73.5071 173.419 74.3375C173.244 76.0205 173.173 77.7127 173.206 79.4044C173.173 81.0961 173.244 82.7883 173.419 84.4712C173.466 85.3017 173.833 86.0815 174.444 86.6463C175.281 87.0735 176.207 87.2963 177.147 87.2963C178.087 87.2963 179.013 87.0735 179.85 86.6463C180.46 86.0807 180.83 85.3018 180.881 84.4712C181.05 82.7878 181.119 81.0959 181.088 79.4044C181.119 77.7128 181.05 76.0209 180.881 74.3375C180.829 73.507 180.46 72.7282 179.85 72.1625ZM178.7 83.4863C178.712 83.9981 178.564 84.5009 178.275 84.9237C177.943 85.1541 177.539 85.2577 177.137 85.2156C176.737 85.2591 176.335 85.1553 176.006 84.9237C175.729 84.4963 175.585 83.9958 175.594 83.4863C175.519 82.7238 175.481 81.3631 175.481 79.4044C175.481 77.4456 175.519 76.0852 175.594 75.3231C175.585 74.8136 175.729 74.313 176.006 73.8856C176.335 73.6539 176.737 73.5502 177.137 73.5938C177.539 73.5517 177.943 73.6553 178.275 73.8856C178.564 74.3083 178.713 74.8112 178.7 75.3231C178.775 76.0856 178.812 77.446 178.812 79.4044C178.812 81.3627 178.775 82.7233 178.7 83.4863ZM199.031 78.2363H195.994V71.6919H193.713V87.1175H195.994V80.4137H199.031V87.1175H201.306V71.6919H199.031V78.2387V78.2363ZM205.394 71.6894L202.625 87.115H204.906L205.531 83.4144H208.525L209.169 87.115H211.469L208.7 71.6894H205.394ZM205.775 81.3769L206.962 74.2025H207.094L208.275 81.3769H205.775ZM216.144 71.6894C215.365 71.6346 214.589 71.8318 213.931 72.2519C213.429 72.6462 213.086 73.2075 212.963 73.8338C212.785 74.7227 212.706 75.6282 212.725 76.5344C212.705 77.4686 212.795 78.402 212.994 79.315C213.065 79.6384 213.201 79.9442 213.393 80.2138C213.585 80.4835 213.83 80.7116 214.113 80.8844L212.438 87.1175H214.781L216.188 81.3769H217.912V87.1175H220.188V71.6919H216.144V71.6894ZM217.912 79.3563H216.5C216.151 79.3863 215.801 79.2997 215.506 79.11C215.282 78.8971 215.14 78.6114 215.106 78.3037C215.025 77.7241 214.992 77.1388 215.006 76.5537C214.992 75.9766 215.026 75.3992 215.106 74.8275C215.142 74.5177 215.288 74.2312 215.519 74.0212C215.81 73.8326 216.154 73.7448 216.5 73.7713H217.912V79.3544V79.3563ZM140.375 78.1962L138.519 71.6894H136.237L139.344 81.8094L137.831 87.115H140.112L144.506 71.6894H142.225L140.375 78.1962ZM132.731 71.6894H129.419L127.006 85.1406H125.912V87.115H125.906V89.0887H128.188V87.115H133.956V89.0887H136.231V87.115H136.237V85.1406H135.144L132.731 71.6894ZM129.244 85.1406L130.987 74.2031H131.119L132.881 85.1406H129.244ZM188.887 71.6894H185.581L183.169 85.1406H182.075V87.115H182.069V89.0887H184.35V87.115H190.119V89.0887H192.394V87.115H192.4V85.1406H191.306L188.887 71.6894ZM185.406 85.1406L187.15 74.2031H187.281L189.044 85.1406H185.406Z" fill="white"/>
</g>
<defs>
<clipPath id="clip0_174_78">
<rect width="129.375" height="80" fill="white" transform="translate(90.8125 24)"/>
</clipPath>
</defs>
</svg>
