<svg width="311" height="128" viewBox="0 0 311 128" fill="none" xmlns="http://www.w3.org/2000/svg">
<rect width="311" height="128" fill="#3B3940"/>
<g clip-path="url(#clip0_174_66)">
<path d="M113.714 47.254C114.097 47.254 114.438 47.382 114.694 47.68C114.949 47.936 115.077 48.276 115.077 48.617V81.837C115.077 82.221 114.949 82.519 114.694 82.775C114.438 83.03 114.097 83.158 113.714 83.158H110.861C110.478 83.158 110.18 83.03 109.924 82.775C109.802 82.6517 109.705 82.5054 109.639 82.3446C109.574 82.1839 109.54 82.0117 109.541 81.838V48.618C109.541 48.234 109.669 47.936 109.924 47.68C110.18 47.382 110.52 47.254 110.861 47.254H113.714ZM157.404 47.254C157.872 47.254 158.256 47.424 158.596 47.765C158.894 48.064 159.065 48.489 159.065 48.958V81.539C159.065 82.008 158.895 82.391 158.596 82.689C158.256 83.03 157.872 83.201 157.404 83.201H135.857C135.389 83.201 135.005 83.031 134.707 82.69C134.542 82.5485 134.41 82.3718 134.322 82.1728C134.233 81.9738 134.191 81.7576 134.197 81.54V48.914C134.197 48.446 134.367 48.063 134.707 47.722C135.005 47.382 135.389 47.211 135.857 47.211H157.404V47.254ZM151.868 62.46C152.337 62.46 152.72 62.29 153.018 61.992C153.358 61.651 153.529 61.268 153.529 60.799V54.453C153.529 53.985 153.359 53.601 153.018 53.303C152.877 53.1376 152.7 53.0059 152.501 52.9176C152.302 52.8294 152.086 52.7868 151.868 52.793H141.35C140.882 52.793 140.499 52.963 140.158 53.303C140.006 53.4529 139.886 53.6321 139.805 53.8298C139.725 54.0275 139.685 54.2395 139.689 54.453V60.799C139.689 61.267 139.859 61.651 140.158 61.992C140.498 62.29 140.882 62.46 141.35 62.46H151.868ZM151.868 77.665C152.337 77.665 152.72 77.495 153.018 77.196C153.358 76.856 153.529 76.472 153.529 76.004V69.658C153.529 69.189 153.359 68.806 153.018 68.508C152.877 68.3424 152.7 68.2105 152.501 68.1221C152.302 68.0336 152.086 67.9909 151.868 67.997H141.35C140.882 67.997 140.499 68.167 140.158 68.507C140.006 68.6568 139.886 68.8361 139.805 69.0338C139.725 69.2315 139.685 69.4436 139.689 69.657V76.004C139.689 76.472 139.859 76.856 140.158 77.196C140.498 77.494 140.882 77.665 141.35 77.665H151.868ZM182.315 47.254C182.698 47.254 183.039 47.382 183.295 47.68C183.55 47.936 183.678 48.276 183.678 48.617V81.837C183.678 82.221 183.55 82.519 183.295 82.775C183.039 83.03 182.698 83.158 182.315 83.158H179.462C179.079 83.158 178.781 83.03 178.525 82.775C178.278 82.5258 178.14 82.1888 178.142 81.838V48.618C178.142 48.234 178.27 47.936 178.525 47.68C178.781 47.382 179.121 47.254 179.462 47.254H182.315ZM227.666 48.575C228.049 48.788 228.305 49.128 228.433 49.555C228.56 50.023 228.518 50.449 228.262 50.832L219.916 64.291C219.618 64.844 219.618 65.398 219.916 65.951L228.262 79.581C228.475 79.964 228.56 80.39 228.433 80.858C228.376 81.064 228.279 81.2566 228.148 81.4248C228.016 81.593 227.852 81.7335 227.666 81.838L225.75 82.945C225.367 83.158 224.941 83.243 224.472 83.115C224.261 83.0575 224.064 82.9557 223.895 82.8162C223.726 82.6766 223.589 82.5027 223.493 82.306L215.189 68.762C214.849 68.209 214.38 67.953 213.741 67.953H209.952C209.483 67.953 209.1 68.123 208.759 68.422C208.461 68.762 208.291 69.146 208.291 69.614V81.497C208.291 81.965 208.12 82.349 207.78 82.647C207.482 82.987 207.056 83.158 206.587 83.158H204.373C203.905 83.158 203.521 82.988 203.223 82.647C203.057 82.5056 202.926 82.3289 202.837 82.1299C202.749 81.9309 202.706 81.7147 202.712 81.497V48.915C202.712 48.447 202.883 48.064 203.223 47.723C203.521 47.383 203.905 47.212 204.373 47.212H206.587C207.056 47.212 207.439 47.382 207.78 47.722C208.12 48.021 208.291 48.447 208.291 48.915V60.798C208.291 61.266 208.461 61.65 208.759 61.991C209.1 62.289 209.483 62.459 209.952 62.459H213.656C214.295 62.459 214.763 62.203 215.104 61.649L223.493 48.106C223.706 47.723 224.046 47.467 224.472 47.339C224.685 47.2725 224.909 47.2533 225.13 47.2826C225.351 47.312 225.562 47.3893 225.75 47.509L227.666 48.575ZM249.043 47.254C249.426 47.254 249.767 47.382 250.022 47.68C250.278 47.936 250.405 48.276 250.405 48.617V81.837C250.405 82.221 250.278 82.519 250.022 82.775C249.767 83.03 249.426 83.158 249.043 83.158H246.19C246.016 83.1631 245.842 83.1316 245.681 83.0656C245.52 82.9997 245.374 82.9007 245.253 82.775C245.131 82.6517 245.034 82.5055 244.968 82.3447C244.902 82.1839 244.869 82.0117 244.87 81.838V48.618C244.87 48.234 244.997 47.936 245.253 47.68C245.508 47.382 245.849 47.254 246.19 47.254H249.043ZM65.638 99.598C65.638 99.215 65.766 98.874 66.064 98.618C66.32 98.363 66.66 98.235 67.001 98.235H89.144C89.527 98.235 89.825 98.363 90.081 98.618C90.336 98.874 90.464 99.215 90.464 99.598V102.451C90.464 102.835 90.336 103.133 90.081 103.388C89.9577 103.511 89.8115 103.607 89.6508 103.673C89.49 103.739 89.3178 103.773 89.144 103.772H67.001C66.618 103.772 66.32 103.644 66.064 103.388C65.9284 103.273 65.8198 103.129 65.7462 102.967C65.6726 102.805 65.6356 102.629 65.638 102.451V99.598ZM84.97 48.915C84.97 48.447 85.14 48.064 85.439 47.723C85.779 47.383 86.163 47.212 86.631 47.212H88.846C89.314 47.212 89.697 47.382 90.038 47.722C90.336 48.021 90.506 48.447 90.506 48.915V81.497C90.506 81.965 90.336 82.349 90.038 82.647C89.698 82.987 89.314 83.158 88.846 83.158H86.63C86.162 83.158 85.778 82.988 85.438 82.647C85.286 82.4971 85.1662 82.3179 85.0857 82.1202C85.0053 81.9225 84.9659 81.7104 84.97 81.497V69.614C84.97 69.146 84.8 68.762 84.458 68.464C84.3165 68.2986 84.1398 68.1669 83.9408 68.0786C83.7418 67.9904 83.5256 67.9478 83.308 67.954H72.835C72.367 67.954 71.984 68.124 71.643 68.464C71.491 68.6139 71.3712 68.7932 71.2907 68.9909C71.2103 69.1886 71.1709 69.4006 71.175 69.614V81.497C71.175 81.965 71.005 82.349 70.664 82.647C70.365 82.987 69.94 83.158 69.471 83.158H67.256C66.788 83.158 66.404 82.988 66.064 82.647C65.9119 82.4972 65.7918 82.318 65.7112 82.1203C65.6306 81.9226 65.591 81.7105 65.595 81.497V48.915C65.595 48.447 65.765 48.064 66.064 47.723C66.404 47.383 66.788 47.212 67.256 47.212H69.47C69.939 47.212 70.322 47.382 70.663 47.722C71.003 48.021 71.173 48.447 71.173 48.915V60.798C71.173 61.266 71.343 61.65 71.642 61.991C71.982 62.289 72.366 62.459 72.834 62.459H83.352C83.821 62.459 84.204 62.289 84.502 61.991C84.842 61.65 85.013 61.267 85.013 60.798V48.915H84.97ZM79.306 24.383L79.051 24.256C78.744 24.0882 78.3998 24.0003 78.05 24.0003C77.7002 24.0003 77.356 24.0882 77.049 24.256L76.794 24.383C72.067 26.811 66.829 28.643 61.25 29.877C61.0262 29.9274 60.8158 30.0252 60.633 30.1638C60.4502 30.3023 60.2992 30.4785 60.1903 30.6803C60.0813 30.8822 60.0168 31.105 60.0013 31.3339C59.9857 31.5627 60.0194 31.7923 60.1 32.007L60.74 33.753C60.9198 34.2155 61.2589 34.5985 61.6963 34.8329C62.1336 35.0672 62.6404 35.1375 63.125 35.031C68.149 33.881 72.919 32.263 77.39 30.133C77.773 29.963 78.241 29.963 78.625 30.133C83.053 32.22 87.823 33.838 92.847 34.988C93.87 35.201 94.891 34.69 95.232 33.711L95.871 31.964C96.211 31.07 95.658 30.048 94.721 29.834C89.271 28.642 84.075 26.811 79.306 24.384V24.383Z" fill="white"/>
</g>
<defs>
<clipPath id="clip0_174_66">
<rect width="191" height="80" fill="white" transform="translate(60 24)"/>
</clipPath>
</defs>
</svg>
