<svg width="48" height="48" viewBox="0 0 48 48" fill="none" xmlns="http://www.w3.org/2000/svg">
<path d="M20.8381 29.8081C23.0231 28.8169 24.8027 27.1072 25.8807 24.9637C26.9587 22.8202 27.27 20.3721 26.763 18.027C26.2559 15.6819 24.9609 13.5811 23.0937 12.0745C21.2264 10.5678 18.8995 9.74605 16.5001 9.74604C14.1008 9.74603 11.7738 10.5677 9.90657 12.0744C8.03929 13.581 6.74432 15.6818 6.23722 18.0269C5.73012 20.372 6.04147 22.8201 7.11945 24.9636C8.19743 27.1071 9.97701 28.8168 12.162 29.8081C8.20523 30.8388 4.74163 33.2381 2.38598 36.5801C2.32909 36.6606 2.28864 36.7515 2.26694 36.8477C2.24523 36.9439 2.2427 37.0434 2.25949 37.1405C2.27628 37.2377 2.31206 37.3306 2.36478 37.4139C2.4175 37.4972 2.48613 37.5693 2.56674 37.626C2.64736 37.6828 2.73837 37.7231 2.83457 37.7447C2.93078 37.7662 3.03029 37.7686 3.12741 37.7516C3.22453 37.7347 3.31736 37.6988 3.40058 37.6459C3.48381 37.5931 3.55579 37.5243 3.61242 37.4436C5.06596 35.3759 6.99567 33.6883 9.23862 32.5233C11.4816 31.3583 13.9719 30.7501 16.4994 30.75C19.0268 30.7499 21.5172 31.358 23.7603 32.5228C26.0033 33.6877 27.9331 35.3751 29.3868 37.4427C29.5016 37.6048 29.6759 37.7147 29.8716 37.7484C30.0673 37.7821 30.2684 37.7368 30.4308 37.6225C30.5931 37.5081 30.7035 37.3341 30.7377 37.1385C30.7719 36.9428 30.7272 36.7416 30.6132 36.579C28.2576 33.2375 24.7944 30.8387 20.8381 29.8081ZM7.50002 20.25C7.50002 18.47 8.02787 16.7299 9.0168 15.2499C10.0057 13.7698 11.4113 12.6163 13.0559 11.9351C14.7004 11.2539 16.51 11.0757 18.2558 11.4229C20.0017 11.7702 21.6053 12.6274 22.864 13.886C24.1227 15.1447 24.9798 16.7484 25.3271 18.4942C25.6744 20.24 25.4961 22.0496 24.8149 23.6941C24.1338 25.3387 22.9802 26.7443 21.5002 27.7332C20.0201 28.7222 18.2801 29.25 16.5 29.25C14.1139 29.2473 11.8263 28.2982 10.139 26.611C8.4518 24.9237 7.50272 22.6361 7.50002 20.25ZM45.7172 37.6241C45.6367 37.6808 45.5458 37.7211 45.4497 37.7427C45.3536 37.7643 45.2542 37.7667 45.1571 37.7499C45.0601 37.733 44.9673 37.6972 44.8841 37.6445C44.8009 37.5918 44.7289 37.5232 44.6722 37.4427C43.2168 35.3769 41.2867 33.6909 39.0442 32.5262C36.8016 31.3616 34.3122 30.7524 31.7853 30.75C31.5864 30.75 31.3956 30.671 31.255 30.5303C31.1143 30.3897 31.0353 30.1989 31.0353 30C31.0353 29.8011 31.1143 29.6103 31.255 29.4697C31.3956 29.329 31.5864 29.25 31.7853 29.25C33.0706 29.2487 34.3406 28.9721 35.5101 28.4389C36.6795 27.9056 37.7211 27.1281 38.5649 26.1586C39.4087 25.1892 40.0351 24.0502 40.4019 22.8184C40.7686 21.5866 40.8673 20.2905 40.6913 19.0173C40.5153 17.7442 40.0686 16.5235 39.3813 15.4374C38.6941 14.3514 37.7822 13.4251 36.707 12.7209C35.6318 12.0168 34.4182 11.5511 33.148 11.3552C31.8777 11.1593 30.5803 11.2377 29.3429 11.5852C29.248 11.6121 29.1487 11.6201 29.0507 11.6086C28.9527 11.5971 28.858 11.5664 28.7718 11.5183C28.6857 11.4701 28.61 11.4055 28.5489 11.328C28.4879 11.2505 28.4427 11.1617 28.416 11.0668C28.3892 10.9718 28.3815 10.8725 28.3933 10.7745C28.405 10.6766 28.4359 10.5819 28.4843 10.4959C28.5327 10.41 28.5975 10.3344 28.6752 10.2735C28.7528 10.2126 28.8417 10.1677 28.9367 10.1412C31.4849 9.42277 34.2103 9.69348 36.5673 10.8991C38.9243 12.1048 40.7389 14.1564 41.6475 16.643C42.5562 19.1297 42.4919 21.8678 41.4675 24.309C40.4431 26.7503 38.5343 28.7145 36.1233 29.8081C40.0797 30.8387 43.5429 33.2375 45.8986 36.579C46.0131 36.7416 46.0584 36.9431 46.0244 37.1391C45.9904 37.3351 45.8799 37.5095 45.7172 37.6241Z" fill="white"/>
</svg>
