<svg width="64" height="64" viewBox="0 0 64 64" fill="none" xmlns="http://www.w3.org/2000/svg">
<path d="M32 33.0971C31.8629 33.0971 31.7258 33.0286 31.6572 32.96L22.8115 24.3885C20.4115 22.0571 19.04 18.8343 19.04 15.5428V8.47998H20.0686V15.5428C20.0686 18.6286 21.3029 21.5771 23.4972 23.7028L32 31.9314L40.5029 23.7028C42.6972 21.5771 43.9315 18.6286 43.9315 15.5428V8.47998H44.96V15.5428C44.96 18.9028 43.5886 22.0571 41.1886 24.3885L32.3429 32.96C32.2743 33.0286 32.1372 33.0971 32 33.0971Z" fill="white"/>
<path d="M45.097 55.52H44.0685V49.3486C44.0685 46.1257 42.697 43.1086 40.3656 40.9829L31.9999 33.3029L23.8399 40.9829C21.577 43.1086 20.2742 46.1257 20.2742 49.28V55.52H19.2456V49.28C19.2456 45.8514 20.6856 42.6286 23.1542 40.2971L31.657 32.2743C31.8627 32.0686 32.137 32.0686 32.3427 32.2743L41.0513 40.2286C43.5885 42.56 45.097 45.8514 45.097 49.3486V55.52Z" fill="white"/>
<path d="M48.4573 9.02857H15.543C15.2687 9.02857 15.063 8.82286 15.063 8.54857C15.063 8.27429 15.2687 8 15.543 8H48.4573C48.7316 8 48.9373 8.20571 48.9373 8.48C48.9373 8.75429 48.7316 9.02857 48.4573 9.02857Z" fill="white"/>
<path d="M48.4573 56H15.543C15.2687 56 15.063 55.7943 15.063 55.52C15.063 55.2457 15.2687 55.04 15.543 55.04H48.4573C48.7316 55.04 48.9373 55.2457 48.9373 55.52C48.9373 55.7943 48.7316 56 48.4573 56Z" fill="white"/>
<path d="M24.5943 15.6114C24.32 15.6114 24.1143 15.4057 24.1143 15.1314V12.5257C24.1143 12.2514 24.32 12.0457 24.5943 12.0457C24.8685 12.0457 25.0743 12.2514 25.0743 12.5257V15.1314C25.0743 15.2686 25.0057 15.4057 24.9371 15.4743C24.8 15.5429 24.6628 15.6114 24.5943 15.6114Z" fill="white"/>
<path d="M24.5943 20C24.32 20 24.1143 19.7943 24.1143 19.52V18.0114C24.1143 17.7371 24.32 17.5314 24.5943 17.5314C24.8685 17.5314 25.0743 17.7371 25.0743 18.0114V19.52C25.0743 19.6571 25.0057 19.7943 24.9371 19.8629C24.8 20 24.6628 20 24.5943 20Z" fill="white"/>
</svg>
