<svg width="64" height="64" viewBox="0 0 64 64" fill="none" xmlns="http://www.w3.org/2000/svg">
<g clip-path="url(#clip0_11_110)">
<path d="M55.8628 17.7371L50.1028 11.9086C49.8971 11.7028 49.6228 11.7028 49.4171 11.9086C49.2114 12.1143 49.2114 12.3886 49.4171 12.5943L55.1085 18.2857L54.9028 28.7771L38.5828 45.0971C38.4457 45.2343 38.4457 45.5771 38.5828 45.7143C38.72 45.8514 39.0628 45.8514 39.2 45.7143L55.6571 29.2571C55.7257 29.1886 55.7257 29.0514 55.7943 28.9828L56 18.08C56 17.9428 55.9314 17.8743 55.8628 17.7371Z" fill="white"/>
<path d="M35.7711 47.9086L34.1254 49.5543L14.4454 29.8743L28.0911 16.2285C28.2968 16.0228 28.2968 15.7485 28.0911 15.5428C27.8854 15.3371 27.6111 15.3371 27.4054 15.5428L13.4854 29.6L8.41112 34.6743C8.20541 34.8114 8.20541 35.1543 8.41112 35.2914L28.434 55.7943C28.5026 55.8628 28.6397 55.9314 28.7083 55.9314C28.7768 55.9314 28.914 55.8628 28.9826 55.8628L34.2626 50.5143L36.2511 48.5257C36.4568 48.32 36.4568 48.0457 36.2511 47.84C36.1826 47.7028 35.9083 47.7028 35.7711 47.9086ZM28.7083 54.9028L9.30255 35.0171L13.8283 30.4914L23.634 40.3657L33.5083 50.1714L28.7083 54.9028Z" fill="white"/>
<path d="M31.9313 12.2514C31.9999 12.2514 32.2056 12.1829 32.2056 12.1143L35.2228 9.09714L45.7828 8.96L46.7428 9.92C46.9485 10.1257 47.2228 10.1257 47.4285 9.92C47.6342 9.71429 47.6342 9.44 47.4285 9.23429L46.3313 8.20571C46.2628 8.06857 46.1256 8 46.057 8L35.017 8.20571C34.9485 8.20571 34.8113 8.27429 34.7428 8.27429L31.5885 11.4286C31.3828 11.5657 31.3828 11.84 31.5199 12.0457L31.5885 12.1143C31.657 12.1829 31.7942 12.2514 31.9313 12.2514Z" fill="white"/>
<path d="M42.9028 21.0971C42.56 20.6857 42.2857 20.2057 42.2171 19.6571C42.2171 19.3828 41.9428 19.2457 41.7371 19.2457C41.4628 19.2457 41.3257 19.4514 41.3257 19.7257C41.3943 20.48 41.7371 21.1657 42.2171 21.7143C43.4514 22.9485 45.5085 22.9485 46.7428 21.7143C47.9771 20.48 47.9771 18.4228 46.7428 17.1885C45.8514 16.2971 44.4114 15.9543 43.1771 16.5028C42.9714 16.5714 42.8343 16.8457 42.9028 17.0514C42.9714 17.2571 43.2457 17.3943 43.4514 17.3257C44.6857 16.8457 46.0571 17.3257 46.5371 18.56C46.9485 19.4514 46.7428 20.5485 45.9885 21.2343C45.3028 22.0571 43.7943 21.9885 42.9028 21.0971Z" fill="white"/>
<path d="M54.2855 33.7829C54.0112 33.8514 53.9426 34.0572 54.0112 34.2629C54.9026 37.8972 53.4626 42.4229 50.5141 45.3714C46.6741 49.2114 41.2569 49.3486 36.7312 45.7143C33.6455 43.3143 32.5484 38.3086 33.7141 32.48C33.7826 32.2057 33.6455 32 33.3712 32C33.0969 31.9314 32.8912 32.0686 32.8912 32.3429C31.6569 38.5143 32.8912 43.7943 36.2512 46.4686C38.3084 48.1829 40.9826 49.1429 43.6569 49.2114C46.4684 49.2114 49.1426 48.0457 51.1312 45.9886C54.2855 42.8343 55.7941 37.9657 54.9026 34.0572C54.6969 33.8514 54.4912 33.7143 54.2855 33.7829Z" fill="white"/>
<path d="M8.61699 19.7943C14.2398 16.2972 20.617 14.3772 27.1998 14.24C37.8284 14.1029 43.7941 19.7943 43.8627 19.8629C43.9313 19.9315 44.0684 19.9315 44.137 19.9315C44.2056 19.9315 44.4113 19.8629 44.4113 19.7943C44.5484 19.6572 44.5484 19.3143 44.4113 19.1772C44.137 18.9715 38.3084 13.28 27.5427 13.28H27.1313C20.4798 13.4857 13.897 15.4057 8.20556 19.04C7.99985 19.1772 7.93128 19.4515 8.06842 19.6572C8.13699 19.8629 8.47985 19.9315 8.61699 19.7943Z" fill="white"/>
</g>
<defs>
<clipPath id="clip0_11_110">
<rect width="48" height="48" fill="white" transform="translate(8 8)"/>
</clipPath>
</defs>
</svg>
