<svg width="96" height="96" viewBox="0 0 96 96" fill="none" xmlns="http://www.w3.org/2000/svg">
<path fill-rule="evenodd" clip-rule="evenodd" d="M48 84C67.8824 84 84 67.8824 84 48C84 40.6664 81.8072 33.845 78.0412 28.1556L49.42 59.9572C46.6496 63.0356 41.9872 63.4904 38.6738 61.0052L25.6 51.2C23.8327 49.8744 23.4745 47.3672 24.8 45.6C26.1255 43.8328 28.6327 43.4744 30.4 44.8L43.4736 54.6052L72.856 21.9582C66.3944 15.7887 57.6396 12 48 12C28.1178 12 12 28.1178 12 48C12 67.8824 28.1178 84 48 84Z" fill="#25232B"/>
</svg>
