<svg width="32" height="33" viewBox="0 0 32 33" fill="none" xmlns="http://www.w3.org/2000/svg">
<g clip-path="url(#clip0_180_234)">
<path d="M26.9716 3.43079C26.8801 2.74508 26.5144 2.10508 26.0116 1.64793C25.463 1.19079 24.7773 0.916504 24.0916 0.916504H7.90871C7.223 0.916504 6.53728 1.19079 5.98871 1.64793C5.44014 2.10508 5.12014 2.74508 5.02871 3.43079C4.06871 4.02508 3.42871 5.12222 3.42871 6.26508V29.8994C3.42871 30.7222 3.74871 31.4536 4.29728 32.0479C4.84585 32.5965 5.623 32.9165 6.44585 32.9165H22.6287C23.1773 32.9165 23.7259 32.6879 24.1373 32.3222C24.5487 31.9565 24.7773 31.4079 24.823 30.8594H26.5601C27.1087 30.8594 27.6116 30.6308 27.9773 30.2651C28.343 29.8994 28.5716 29.3965 28.5716 28.8479V6.26508C28.5716 5.12222 27.9773 4.02508 26.9716 3.43079ZM5.303 3.84222C5.303 3.75079 5.303 3.65936 5.303 3.52222C5.39443 2.88222 5.66871 2.28793 6.17157 1.8765C6.67443 1.46508 7.26871 1.19079 7.90871 1.2365H24.0459C24.6859 1.2365 25.3259 1.46508 25.783 1.92222C26.2859 2.33365 26.5601 2.92793 26.6516 3.56793C26.6516 3.65936 26.6516 3.75079 26.6516 3.88793V22.6765C26.6059 22.5851 26.5144 22.4936 26.423 22.4022C26.103 22.0822 25.6459 21.8994 25.1887 21.8994H7.68014C7.17728 21.8994 6.72014 22.0365 6.30871 22.2651C5.89728 22.5394 5.53157 22.8594 5.34871 23.3165L5.303 3.84222ZM7.68014 22.1736H25.2801C25.6459 22.1736 26.0573 22.3108 26.3316 22.5851C26.6059 22.8594 26.743 23.2251 26.743 23.6365C26.743 24.0022 26.6059 24.4136 26.3316 24.6879C26.0573 24.9622 25.6916 25.0994 25.2801 25.0994H8.503C8.13728 25.0994 7.863 24.8251 7.863 24.4594C7.863 24.0936 8.13728 23.8194 8.503 23.8194H23.6801V23.4994H8.503C7.95443 23.4994 7.543 23.9108 7.543 24.4594C7.543 24.9622 7.95443 25.4194 8.503 25.4194H23.4973C23.4516 25.7851 23.3144 26.1508 23.0401 26.4251C22.7659 26.6994 22.4001 26.8822 22.0344 26.9279H7.49728C6.903 26.8822 6.35443 26.6079 5.943 26.1965C5.53157 25.7394 5.303 25.1908 5.303 24.5965C5.303 23.9565 5.53157 23.3622 5.98871 22.9051C6.44585 22.4022 7.04014 22.1736 7.68014 22.1736ZM3.74871 6.26508C3.74871 5.30508 4.20585 4.39079 4.983 3.7965C4.983 3.7965 4.983 3.7965 4.983 3.84222V24.5051C4.983 25.1908 5.25728 25.8765 5.76014 26.3794C5.943 26.5622 6.17157 26.7451 6.40014 26.8365C5.85157 26.8365 5.303 27.0194 4.80014 27.2936C4.343 27.6136 3.93157 28.0251 3.703 28.5279L3.74871 6.26508ZM26.5601 30.5394H7.40585C7.17728 30.5394 6.99443 30.4936 6.85728 30.3108C6.72014 30.1736 6.62871 29.9451 6.62871 29.7622C6.62871 29.5336 6.72014 29.3508 6.85728 29.2136C6.99443 29.0765 7.223 28.9851 7.40585 28.9851H24.7316V28.6651H7.40585C7.13157 28.6651 6.81157 28.7565 6.62871 28.9851C6.40014 29.1679 6.30871 29.4422 6.30871 29.7622C6.30871 30.0365 6.44585 30.3108 6.62871 30.5394C6.85728 30.7222 7.13157 30.8594 7.40585 30.8594H24.5487C24.503 31.3165 24.3201 31.7736 23.9544 32.0936C23.5887 32.4136 23.1316 32.5965 22.6744 32.5965H6.44585C5.71443 32.5965 4.983 32.3222 4.48014 31.8194C3.97728 31.3165 3.65728 30.6308 3.65728 29.8994C3.65728 29.1679 3.93157 28.4822 4.48014 27.9336C4.983 27.4308 5.71443 27.1565 6.44585 27.1565H7.45157C7.49728 27.1565 7.543 27.1565 7.63443 27.1565H21.8059C21.8516 27.1565 21.8973 27.1565 21.9887 27.1565H26.5601C27.0173 27.1565 27.4744 27.2936 27.7944 27.6136C28.1144 27.9336 28.2973 28.3908 28.2973 28.8022C28.2973 29.2136 28.1144 29.7165 27.7944 29.9908C27.4744 30.4022 27.0173 30.5394 26.5601 30.5394ZM28.2516 27.8422C27.8859 27.2479 27.2459 26.8822 26.5601 26.8822H22.8573C23.3601 26.5622 23.7259 26.0136 23.7716 25.3736H25.2801C25.7373 25.3736 26.1944 25.1908 26.5144 24.8708C26.8344 24.5508 27.0173 24.0936 27.0173 23.6365V3.84222C27.0173 3.84222 27.0173 3.84222 27.0173 3.7965C27.7944 4.34508 28.2516 5.25936 28.2516 6.26508V27.8422Z" fill="white"/>
</g>
<defs>
<clipPath id="clip0_180_234">
<rect width="32" height="32" fill="white" transform="translate(0 0.916504)"/>
</clipPath>
</defs>
</svg>
