<svg width="64" height="64" viewBox="0 0 64 64" fill="none" xmlns="http://www.w3.org/2000/svg">
<path d="M48.4574 11.7714C48.3202 10.7429 47.7716 9.78286 47.0174 9.09714C46.1945 8.41143 45.1659 8 44.1374 8H19.8631C18.8345 8 17.8059 8.41143 16.9831 9.09714C16.1602 9.78286 15.6802 10.7429 15.5431 11.7714C14.1031 12.6629 13.1431 14.3086 13.1431 16.0229V51.4743C13.1431 52.7086 13.6231 53.8057 14.4459 54.6971C15.2688 55.52 16.4345 56 17.6688 56H41.9431C42.7659 56 43.5888 55.6571 44.2059 55.1086C44.8231 54.56 45.1659 53.7371 45.2345 52.9143H47.8402C48.6631 52.9143 49.4174 52.5714 49.9659 52.0229C50.5145 51.4743 50.8574 50.72 50.8574 49.8971V16.0229C50.8574 14.3086 49.9659 12.6629 48.4574 11.7714ZM15.9545 12.3886C15.9545 12.2514 15.9545 12.1143 15.9545 11.9086C16.0916 10.9486 16.5031 10.0571 17.2574 9.44C18.0116 8.82286 18.9031 8.41143 19.8631 8.48H44.0688C45.0288 8.48 45.9888 8.82286 46.6745 9.50857C47.4288 10.1257 47.8402 11.0171 47.9774 11.9771C47.9774 12.1143 47.9774 12.2514 47.9774 12.4571V40.64C47.9088 40.5029 47.7716 40.3657 47.6345 40.2286C47.1545 39.7486 46.4688 39.4743 45.7831 39.4743H19.5202C18.7659 39.4743 18.0802 39.68 17.4631 40.0229C16.8459 40.4343 16.2974 40.9143 16.0231 41.6L15.9545 12.3886ZM19.5202 39.8857H45.9202C46.4688 39.8857 47.0859 40.0914 47.4974 40.5029C47.9088 40.9143 48.1145 41.4629 48.1145 42.08C48.1145 42.6286 47.9088 43.2457 47.4974 43.6571C47.0859 44.0686 46.5374 44.2743 45.9202 44.2743H20.7545C20.2059 44.2743 19.7945 43.8629 19.7945 43.3143C19.7945 42.7657 20.2059 42.3543 20.7545 42.3543H43.5202V41.8743H20.7545C19.9316 41.8743 19.3145 42.4914 19.3145 43.3143C19.3145 44.0686 19.9316 44.7543 20.7545 44.7543H43.2459C43.1774 45.3029 42.9716 45.8514 42.5602 46.2629C42.1488 46.6743 41.6002 46.9486 41.0516 47.0171H19.2459C18.3545 46.9486 17.5316 46.5371 16.9145 45.92C16.2974 45.2343 15.9545 44.4114 15.9545 43.52C15.9545 42.56 16.2974 41.6686 16.9831 40.9829C17.6688 40.2286 18.5602 39.8857 19.5202 39.8857ZM13.6231 16.0229C13.6231 14.5829 14.3088 13.2114 15.4745 12.32C15.4745 12.32 15.4745 12.32 15.4745 12.3886V43.3829C15.4745 44.4114 15.8859 45.44 16.6402 46.1943C16.9145 46.4686 17.2574 46.7429 17.6002 46.88C16.7774 46.88 15.9545 47.1543 15.2002 47.5657C14.5145 48.0457 13.8974 48.6629 13.5545 49.4171L13.6231 16.0229ZM47.8402 52.4343H19.1088C18.7659 52.4343 18.4916 52.3657 18.2859 52.0914C18.0802 51.8857 17.9431 51.5429 17.9431 51.2686C17.9431 50.9257 18.0802 50.6514 18.2859 50.4457C18.4916 50.24 18.8345 50.1029 19.1088 50.1029H45.0974V49.6229H19.1088C18.6974 49.6229 18.2174 49.76 17.9431 50.1029C17.6002 50.3771 17.4631 50.7886 17.4631 51.2686C17.4631 51.68 17.6688 52.0914 17.9431 52.4343C18.2859 52.7086 18.6974 52.9143 19.1088 52.9143H44.8231C44.7545 53.6 44.4802 54.2857 43.9316 54.7657C43.3831 55.2457 42.6974 55.52 42.0116 55.52H17.6688C16.5716 55.52 15.4745 55.1086 14.7202 54.3543C13.9659 53.6 13.4859 52.5714 13.4859 51.4743C13.4859 50.3771 13.8974 49.3486 14.7202 48.5257C15.4745 47.7714 16.5716 47.36 17.6688 47.36H19.1774C19.2459 47.36 19.3145 47.36 19.4516 47.36H40.7088C40.7774 47.36 40.8459 47.36 40.9831 47.36H47.8402C48.5259 47.36 49.2116 47.5657 49.6916 48.0457C50.1716 48.5257 50.4459 49.2114 50.4459 49.8286C50.4459 50.4457 50.1716 51.2 49.6916 51.6114C49.2116 52.2286 48.5259 52.4343 47.8402 52.4343ZM50.3774 48.3886C49.8288 47.4971 48.8688 46.9486 47.8402 46.9486H42.2859C43.0402 46.4686 43.5888 45.6457 43.6574 44.6857H45.9202C46.6059 44.6857 47.2916 44.4114 47.7716 43.9314C48.2516 43.4514 48.5259 42.7657 48.5259 42.08V12.3886C48.5259 12.3886 48.5259 12.3886 48.5259 12.32C49.6916 13.1429 50.3774 14.5143 50.3774 16.0229V48.3886Z" fill="white"/>
</svg>
