<svg width="32" height="32" viewBox="0 0 32 32" fill="none" xmlns="http://www.w3.org/2000/svg">
<path d="M25.2551 5.55499C24.9801 5.16499 24.5251 4.92999 24.0451 4.92999H8.18509C7.71009 4.92999 7.26009 5.15999 6.97509 5.53999L2.21509 11.97C1.89509 12.405 1.93509 13 2.31009 13.385L15.2851 26.77C15.6551 27.15 16.2701 27.195 16.7101 26.77L29.6851 13.385C30.0551 13 30.1051 12.405 29.7951 11.97L25.2551 5.55499ZM20.0351 13.175L16.0101 25.175L12.2051 13.175H20.0351ZM12.4301 12.175L16.1151 6.36499L19.8151 12.175H12.4301ZM17.0251 5.92999H23.7201L20.6851 11.68L17.0251 5.92999ZM11.5601 11.68L8.51009 5.92999H15.2051L11.5601 11.68ZM14.8801 24.915L3.49509 13.175H11.1551L14.8801 24.915ZM21.0901 13.175H28.5001L17.1651 24.875L21.0901 13.175ZM21.5601 12.175L24.6151 6.38499L28.7151 12.175H21.5601ZM7.61009 6.36499L10.6951 12.175H3.31009L7.61009 6.36499Z" fill="#BDBDBD"/>
</svg>
